HIERARCHY
ROOT Hips
{
	OFFSET 0.00000 0.00000 0.00000
	CHANNELS 6 Xposition Yposition Zposition Yrotation Zrotation Xrotation 
	JOINT Lumbar
	{
		OFFSET 0 0 0
		CHANNELS 3 Zrotation Xrotation Yrotation
		JOINT Neck
		{
			OFFSET 0.00 0.2701 0.00
			CHANNELS 3 Zrotation Xrotation Yrotation
			End Site
			{
				OFFSET 0.00 0.1379 0.00
			}
		}
		JOINT RightShoulder
		{
			OFFSET 0.0119 0.2289 0.1181
			CHANNELS 3 Zrotation Xrotation Yrotation
			JOINT RightElbow
			{
				OFFSET 0.00 -0.1475 0.00
				CHANNELS 2 Zrotation Yrotation
				JOINT RightWrist
				{
					OFFSET 0.00 -0.1605 0.00
					CHANNELS 2 Zrotation Xrotation
					End Site
					{
						OFFSET 0.0040 -0.1068 0.0006
					}
				}
			}
		}
		JOINT LeftShoulder
		{
			OFFSET 0.0119 0.2289 -0.1181
			CHANNELS 3 Zrotation Xrotation Yrotation
			JOINT LeftElbow
			{
				OFFSET 0.00 -0.1475 0.00
				CHANNELS 2 Zrotation Yrotation
				JOINT LeftWrist
				{
					OFFSET 0.00 -0.1605 0.00
					CHANNELS 2 Zrotation Xrotation
					End Site
					{
						OFFSET 0.0040 -0.1068 -0.0006
					}
				}
			}
		}
	}
	JOINT RightHip
	{
		OFFSET 0.0316 -0.0424 0.0458
		CHANNELS 3 Zrotation Xrotation Yrotation
		JOINT RightKnee
		{
			OFFSET 0.00 -0.2438 0.00
			CHANNELS 1 Zrotation
			JOINT RightAnkle
			{
				OFFSET 0.00 -0.2449 0.00
				CHANNELS 3 Zrotation Xrotation Yrotation
				End Site
				{
					OFFSET 0.1237 -0.0542 0.0051
				}
			}
		}
	}
	JOINT LeftHip
	{
		OFFSET 0.0316 -0.0424 -0.0458
		CHANNELS 3 Zrotation Xrotation Yrotation
		JOINT LeftKnee
		{
			OFFSET 0.00 -0.2438 0.00
			CHANNELS 1 Zrotation
			JOINT LeftAnkle
			{
				OFFSET 0.00 -0.2449 0.00
				CHANNELS 3 Zrotation Xrotation Yrotation
				End Site
				{
					OFFSET 0.1237 -0.0542 -0.0051
				}
			}
		}
	}
}
MOTION
Frames: 26
Frame Time: 0.02
0 0.57926 0 165.53055 0 -4.80344 5.83274 3.65494 -4.12877 -26.80729 7.32038 3.25798 20.48785 -22.35433 6.59153 6.761 63.44945 10.32252 -10.09204 22.40543 5.83242 -12.90972 9.91244 -81.18999 -3.91711 3.64053 -3.43479 4.87994 -1.26239 -6.69941 -12.44694 -2.41614 -9.30368 -7.47163 6.16928 19.75819 -0.78966 -5.8608 2.89633 4.51269
-0.00057 0.57913 -0.00069 165.57089 0 -4.8173 5.94846 3.78274 -4.14274 -26.94445 7.01142 3.02723 20.97893 -21.99865 6.71909 6.82822 63.60401 10.28227 -10.1535 22.94457 6.19526 -13.11382 10.18603 -81.20942 -4.05389 3.82918 -3.42565 4.95665 -1.22225 -6.86604 -12.25975 -2.45034 -9.4678 -7.57213 6.23808 19.52003 -0.72286 -5.84507 2.91138 4.61101
-0.00113 0.57899 -0.00139 165.61011 0 -4.83113 6.06309 3.90988 -4.15669 -27.08097 6.70461 2.79777 21.46774 -21.64534 6.84665 6.89602 63.7515 10.24373 -10.21437 23.48043 6.55586 -13.31687 10.45761 -81.22893 -4.18959 4.01641 -3.4164 5.0334 -1.18128 -7.03246 -12.07346 -2.48441 -9.63095 -7.67301 6.30681 19.28474 -0.65543 -5.83016 2.9262 4.70799
-0.0017 0.57885 -0.0021 165.64506 0 -4.84475 6.17572 4.03471 -4.16986 -27.21738 6.4057 2.57396 21.95278 -21.30161 6.97841 6.96621 63.8679 10.2121 -10.27344 24.01102 6.90731 -13.5176 10.72357 -81.24894 -4.3225 4.20024 -3.40606 5.11016 -1.13678 -7.20011 -11.88815 -2.51856 -9.79189 -7.77627 6.37496 19.05721 -0.58458 -5.81834 2.9403 4.8018
-0.00227 0.57872 -0.00275 165.70239 0 -4.8592 6.30039 4.17069 -4.18616 -27.35564 6.0677 2.32347 22.45838 -20.91133 7.09148 7.02307 64.14378 10.14444 -10.34198 24.57264 7.30274 -13.73047 11.019 -81.26632 -4.47047 4.40257 -3.40081 5.18582 -1.11123 -7.36182 -11.69671 -2.55261 -9.96465 -7.86679 6.44499 18.78687 -0.5315 -5.79008 2.95832 4.9139
-0.00283 0.57858 -0.00352 165.71249 0 -4.87208 6.39849 4.28369 -4.19648 -27.48899 5.81085 2.12748 22.91958 -20.61705 7.24151 7.10849 64.08564 10.15265 -10.39049 25.06593 7.60781 -13.91756 11.25199 -81.28923 -4.58625 4.56525 -3.38529 5.26443 -1.04544 -7.53551 -11.51908 -2.58665 -10.11216 -7.98428 6.51177 18.6085 -0.44113 -5.79666 2.96792 4.9862
-0.00341 0.57846 -0.00462 165.58614 0 -4.87903 6.4317 4.32758 -4.18427 -27.62003 5.79575 2.10106 23.2705 -20.61471 7.52254 7.27439 63.03947 10.38179 -10.38256 25.39596 7.6362 -14.03501 11.31086 -81.3286 -4.6146 4.62174 -3.33594 5.34783 -0.86423 -7.75189 -11.37016 -2.62308 -10.19182 -8.1813 6.5647 18.67889 -0.23943 -5.9027 2.95468 4.95483
-0.00399 0.57834 -0.00585 165.41301 0 -4.88466 6.43666 4.3492 -4.16694 -27.74464 5.85983 2.1265 23.5749 -20.70506 7.83609 7.46886 61.66721 10.6856 -10.35474 25.65312 7.57781 -14.12609 11.30694 -81.3733 -4.61021 4.63766 -3.27724 5.43492 -0.64306 -7.97874 -11.2366 -2.65915 -10.24562 -8.40483 6.61535 18.84315 -0.00148 -6.04334 2.93289 4.88212
-0.00457 0.57822 -0.00704 165.2651 0 -4.89195 6.44893 4.38494 -4.15607 -27.86446 5.87556 2.11526 23.89279 -20.73468 8.11598 7.64959 60.48522 10.94826 -10.33655 25.92696 7.57759 -14.22865 11.33307 -81.41492 -4.61989 4.67007 -3.22625 5.52259 -0.44267 -8.19496 -11.10214 -2.69373 -10.31024 -8.61325 6.67026 18.96794 0.21483 -6.16626 2.91466 4.82413
-0.00515 0.57809 -0.00816 165.10071 0 -4.89487 6.48411 4.40441 -4.12847 -28.01494 5.94139 2.15779 24.24222 -20.83997 8.47458 7.8341 59.12489 11.24174 -10.31529 26.26841 7.50073 -14.33418 11.35334 -81.4596 -4.63304 4.71069 -3.1604 5.60068 -0.23097 -8.43635 -10.94262 -2.73497 -10.37917 -8.83468 6.71145 19.07928 0.45329 -6.2979 2.89762 4.78311
-0.00572 0.57798 -0.00945 164.95924 0 -4.90647 6.46539 4.45169 -4.13357 -28.10239 5.9243 2.10263 24.51578 -20.81328 8.67816 8.01678 58.05965 11.48824 -10.2964 26.45388 7.55983 -14.42617 11.3702 -81.49883 -4.63112 4.72456 -3.12358 5.69967 -0.03367 -8.62725 -10.8382 -2.76263 -10.43249 -9.03514 6.78082 19.24092 0.65377 -6.4192 2.87633 4.69716
-0.00625 0.57795 -0.01119 164.89481 0 -4.94309 6.30013 4.58803 -4.23811 -27.99688 5.63624 1.74813 24.58321 -20.36827 8.43494 8.1937 57.87985 11.5913 -10.28263 26.20774 8.04194 -14.49655 11.39903 -81.52482 -4.59621 4.67457 -3.16653 5.85494 0.11696 -8.68114 -10.88842 -2.74947 -10.45329 -9.17286 6.92744 19.51824 0.74464 -6.50699 2.84294 4.49557
-0.00677 0.57794 -0.0131 164.85451 0 -4.98832 6.08242 4.75184 -4.37422 -27.83168 5.26606 1.29686 24.57686 -19.79296 8.03613 8.36648 58.01024 11.64365 -10.27291 25.81031 8.65904 -14.55253 11.42547 -81.54463 -4.54716 4.59906 -3.23946 6.03124 0.25116 -8.68307 -10.99223 -2.72316 -10.45841 -9.28835 7.10273 19.84275 0.79535 -6.58256 2.80596 4.25075
-0.00729 0.57792 -0.01494 164.80178 0 -5.02913 5.89182 4.89864 -4.49076 -27.70765 4.94855 0.90079 24.61019 -19.29793 7.71629 8.53725 58.00425 11.71624 -10.26573 25.49487 9.19694 -14.60892 11.44908 -81.56516 -4.50413 4.53515 -3.30048 6.19826 0.39101 -8.70536 -11.06758 -2.7053 -10.46799 -9.41283 7.26565 20.14608 0.86163 -6.66139 2.77233 4.02654
-0.00783 0.57791 -0.01674 164.75405 0 -5.0721 5.6866 5.06383 -4.62934 -27.52537 4.56974 0.45848 24.6181 -18.71768 7.36474 8.72607 57.96636 11.80329 -10.24018 25.12241 9.80681 -14.69004 11.48709 -81.59444 -4.46156 4.46975 -3.35413 6.3642 0.53997 -8.74119 -11.16142 -2.67758 -10.4882 -9.54255 7.42568 20.45249 0.94016 -6.75098 2.73144 3.7958
-0.00832 0.57787 -0.01867 164.70168 0 -5.11259 5.4995 5.19746 -4.72936 -27.44872 4.29715 0.08967 24.65933 -18.2822 7.03932 8.87515 58.07428 11.84719 -10.25309 24.83198 10.30042 -14.71689 11.49527 -81.60428 -4.41526 4.40197 -3.4301 6.53739 0.66546 -8.73706 -11.2285 -2.66655 -10.48254 -9.65621 7.59858 20.76133 0.98358 -6.815 2.70459 3.57019
-0.00866 0.57773 -0.02087 164.63606 0 -5.14453 5.37737 5.238 -4.71741 -27.69276 4.34553 -0.06018 24.83474 -18.2829 6.84597 8.92189 58.49848 11.784 -10.3797 24.82068 10.43631 -14.59419 11.42268 -81.55899 -4.36088 4.33346 -3.56312 6.72511 0.73286 -8.62892 -11.21523 -2.70984 -10.41472 -9.72663 7.79989 21.07498 0.93627 -6.80958 2.72048 3.35822
-0.00894 0.57756 -0.0232 164.56436 0 -5.17362 5.27505 5.24578 -4.66536 -28.04279 4.50183 -0.13171 25.04236 -18.43235 6.68019 8.92729 59.06234 11.67879 -10.54318 24.8948 10.45173 -14.41777 11.3203 -81.49482 -4.3036 4.26365 -3.71719 6.91962 0.77808 -8.48338 -11.17192 -2.7686 -10.32215 -9.78234 8.01322 21.38752 0.85562 -6.77912 2.75012 3.15472
-0.00925 0.57739 -0.02548 164.49184 0 -5.20373 5.16236 5.26824 -4.62996 -28.33452 4.60337 -0.23411 25.21918 -18.51045 6.48712 8.94744 59.57078 11.59272 -10.68454 24.91973 10.52503 -14.26856 11.23118 -81.44124 -4.24863 4.19492 -3.85973 7.11102 0.82948 -8.35927 -11.13786 -2.81806 -10.23537 -9.84744 8.22105 21.69337 0.79222 -6.76098 2.77148 2.9554
-0.00955 0.57724 -0.02771 164.43439 0 -5.23525 5.05348 5.29265 -4.60149 -28.6658 4.72623 -0.35908 25.46001 -18.60048 6.35036 8.98508 60.05579 11.50489 -10.84946 24.98238 10.58943 -14.10833 11.143 -81.37913 -4.18907 4.12335 -4.0112 7.30255 0.89033 -8.21514 -11.12403 -2.88011 -10.16435 -9.90026 8.42985 22.02993 0.71805 -6.73797 2.80125 2.72253
-0.00985 0.57705 -0.03007 164.34488 0 -5.26312 4.94221 5.30468 -4.54971 -28.94208 4.83137 -0.41806 25.57814 -18.70195 6.10563 8.97579 60.61885 11.41119 -10.97303 24.98965 10.6424 -13.95685 11.04598 -81.33017 -4.13842 4.05754 -4.14921 7.49602 0.93454 -8.10389 -11.06051 -2.91545 -10.06329 -9.97558 8.63936 22.30332 0.65962 -6.71993 2.81686 2.55975
-0.01018 0.57673 -0.0327 164.1593 0 -5.28078 4.81822 5.29203 -4.43375 -29.02869 4.86142 -0.30592 25.3326 -18.8054 5.55071 8.85345 61.36065 11.31382 -10.98185 24.81655 10.68929 -13.85724 10.93076 -81.32412 -4.11445 4.00985 -4.24016 7.68513 0.8636 -8.09821 -10.86469 -2.91307 -9.80826 -10.1153 8.84558 22.38718 0.64639 -6.71629 2.79006 2.60954
-0.01051 0.57636 -0.03545 163.94335 0 -5.2949 4.69158 5.26755 -4.29713 -29.05888 4.87028 -0.13092 24.96594 -18.91465 4.88839 8.68432 62.1744 11.21195 -10.94631 24.58713 10.72885 -13.76587 10.80798 -81.33163 -4.09942 3.96787 -4.31751 7.87707 0.78705 -8.12621 -10.62026 -2.87783 -9.53495 -10.27832 9.05243 22.40979 0.65115 -6.71946 2.74872 2.7261
-0.01084 0.57602 -0.03816 163.74697 0 -5.31121 4.56734 5.24749 -4.17639 -29.12289 4.88902 0.01032 24.66631 -19.01739 4.27892 8.53213 62.95633 11.11078 -10.92532 24.38809 10.77379 -13.66097 10.68932 -81.33169 -4.07941 3.92205 -4.40412 8.0732 0.76666 -8.13525 -10.39921 -2.82913 -9.32492 -10.43194 9.26031 22.47067 0.6526 -6.7233 2.71381 2.79822
-0.01116 0.57567 -0.04083 163.52558 0 -5.32526 4.43898 5.23073 -4.02776 -29.15575 4.91031 0.17549 24.3174 -19.14143 3.6514 8.39586 63.74264 11.01334 -10.92873 24.17021 10.80622 -13.59458 10.56642 -81.33654 -4.06292 3.88104 -4.47874 8.24756 0.53405 -8.15802 -10.17099 -2.89289 -8.89583 -10.58094 9.46286 22.48882 0.63399 -6.71087 2.67942 2.92919
-0.01151 0.57532 -0.04361 163.34972 0 -5.34284 4.31797 5.20424 -3.93175 -29.23908 4.92 0.30554 24.04162 -19.22077 3.03794 8.217 64.53125 10.9082 -10.87104 23.97903 10.8642 -13.45179 10.45134 -81.33486 -4.04156 3.83188 -4.5745 8.46646 0.72377 -8.16115 -9.94745 -2.72439 -8.90159 -10.74413 9.67675 22.57976 0.65981 -6.73362 2.64122 2.95452
